<?xml version="1.0" encoding="UTF-8"?>
<svg id="Layer_2" data-name="Layer 2" xmlns="http://www.w3.org/2000/svg" viewBox="0 0 566.93 850.39">
  <defs>
    <style>
      .cls-1 {
        fill: #fff;
      }

      .cls-2 {
        fill: #e7242f;
      }

      .cls-3 {
        fill: #00a25b;
      }
    </style>
  </defs>
  <g id="_레이어_1" data-name="레이어 1">
    <g>
      <path d="m561.27,76.66c-3.71-3.86-8.88-5.59-15.1-4.99h0c-2.59.26-258.25,22.89-331.93,29.1-26.64,2.2-46.86,8.36-61.82,18.64-30.75,21.14-48.75,44.2-58.46,74.63-10.47,33.06-10.84,74.98-1.06,132.01,1.58,9.37,2.99,17.61,4.23,24.78,5.46,31.55,7.66,44.63,9.07,58.43,10.67,104.1-6.13,184.43-22.07,233.52-15.65,48.13-33.65,76.43-37.02,81.52-5.04.19-24.49,4.57-26.01,27.04-.6,9.1,2.21,16.83,8.19,22.31,5.23,4.8,10.16,5.77,24.62,4.62,0,0,377.31-45.34,377.83-45.41,19.5-2.27,30.84-11.42,48.66-68.63,22.34-71.74,24.5-154.53,6.73-253.25-1.85-10.1-11.71-78.44-17.04-136.2-4.37-48.58,2.6-97.11,19.61-136.73,1.88-4.49,3.95-8.8,6.03-12.9l47.1-4.53c12.39-.94,21.18-8.68,23.55-21.92,1.56-8.75-.33-16.96-5.12-22.04Zm-146.98,625.73c.45-1.74.97-3.39,1.65-4.91l12.48-1.63c-1.09,1.95-2.06,4.62-2.17,7.63-.13,3.59,1.16,7.34,3.57,9.9l-15.41,2.23c-1.19-4.12-1.23-8.72-.12-13.22Zm22.11,10.01c-4.09.17-6.32-4.6-6.2-8.76.19-5.06,3.67-8.97,3.67-8.97,0,0,1.69-2.16,3.18-3.5.1-.11.44-.41-.17-.3-.68.04-18.77,2.47-18.77,2.47,3.8-6.08,9.43-10.12,15.88-11.3l2.42-.29c.87,0,1.7-.06,2.63,0,2.96.15,5.69,1.71,7.7,4.37,2.87,3.87,3.65,9.5,2.09,15.08-1.16,4.34-4.96,10.99-12.44,11.21Zm-382.95,62.07c-8.3,1-16.13,1.26-21.47-3.66-5.05-4.59-7.46-11.28-6.9-19.17,1.35-19.93,18.61-23.54,22.35-23.54.37,0,1.91-.07,1.91-.07l372.31-44.48c-5.26,4.13-9.23,10.29-11.17,17.93-2.16,8.38-.55,17.22,4.26,23.43,1.72,2.26,3.69,4.02,5.89,5.39l-367.19,44.17ZM486,136.6c-17.21,40.15-24.23,89.34-19.8,138.48,5.3,57.94,15.17,126.38,17.04,136.56,17.7,98.05,15.53,180.35-6.63,251.49-17.65,56.71-29.98,64.38-46.63,65.71-4.69.37-8.98-2.18-12.07-6.22-.8-1.02-1.45-2.16-2.05-3.29l20.54-3.03c9.97-1.45,14.33-6.85,16.31-14.09,1.88-6.83.86-13.5-2.75-18.35-2.7-3.61-6.49-5.71-10.7-5.95-1.02-.03-3.26.11-6.17.35l-380.97,45.52c5.79-9.17,21.67-36.51,35.75-79.67,10.23-31.45,17.49-65.1,21.66-99.86,5.13-43.53,5.34-89.05.65-135.36-1.39-13.91-3.7-27.01-9.14-58.64-1.24-7.24-2.63-15.41-4.24-24.8-9.6-56.42-9.32-97.8,1-130.22,9.39-29.62,26.92-52.02,56.92-72.68,14.2-9.77,34.33-15.78,59.9-17.92,63.59-5.38,262.64-23,317.68-27.83-17.16,9.57-33.81,30.83-46.28,59.82Zm34.17-45.77l10.77-1.44c-2.08,2.33-3.55,5.21-4.42,8.1-1.81,6.25-.88,12.49,2.51,17.12.91,1.25,1.98,2.29,3.14,3.2l-34.21,3.26c6.82-12.43,14.2-22.53,22.22-30.23h0Zm10.15,7.71c1.09-3.64,4.33-9.48,10.14-10.47,0,0,1.37-.31,2.38-.19,1.76.19,3.37.94,4.53,2.3,1.32,1.59,1.94,3.76,1.69,5.71-.37,2.04-1.36,4.07-1.97,5.12l-17.48,1.75c.08-1.4.33-2.8.72-4.21Zm32.13-.5c-2,11.44-9.26,18.29-19.7,18.72,0,0-1.76.03-2.57,0-3.17-.11-6.01-1.72-7.95-4.42-1.24-1.64-2.05-3.64-2.45-5.74l19.62-1.95.51-.78s2.46-3.6,3.01-7.39c.47-3.01-.47-6.3-2.52-8.72-1.89-2.23-4.51-3.58-7.34-3.75-.71,0-2.08.08-3.37.26l-14.48,2.02c6.49-5.33,13.12-8.85,19.73-10.4.52-.16,2.05-.48,3.45-.48,4.09,0,7.42,1.25,9.93,3.91,3.91,4.07,5.52,11.25,4.11,18.72Z"/>
      <path class="cls-3" d="m414.29,702.4c.45-1.74.97-3.39,1.65-4.91l12.48-1.63c-1.09,1.95-2.06,4.62-2.17,7.63-.13,3.59,1.16,7.34,3.57,9.9l-15.41,2.23c-1.19-4.12-1.23-8.72-.12-13.22Zm22.11,10.01c-4.09.17-6.32-4.6-6.2-8.76.19-5.06,3.67-8.97,3.67-8.97,0,0,1.69-2.16,3.18-3.5.1-.11.44-.41-.17-.3-.68.04-18.77,2.47-18.77,2.47,3.8-6.08,9.43-10.12,15.88-11.3l2.42-.29c.87,0,1.7-.06,2.63,0,2.96.15,5.69,1.71,7.7,4.37,2.87,3.87,3.65,9.5,2.09,15.08-1.16,4.34-4.96,10.99-12.44,11.21Zm-382.95,62.07c-8.3,1-16.13,1.26-21.47-3.66-5.05-4.59-7.46-11.28-6.9-19.17,1.35-19.93,18.61-23.54,22.35-23.54.37,0,1.91-.07,1.91-.07l372.31-44.48c-5.26,4.13-9.23,10.29-11.17,17.93-2.16,8.38-.55,17.22,4.26,23.43,1.72,2.26,3.69,4.02,5.89,5.39l-367.19,44.17ZM486,136.6c-17.21,40.15-24.23,89.34-19.8,138.48,5.3,57.94,15.17,126.38,17.04,136.56,17.7,98.05,15.53,180.35-6.63,251.49-17.65,56.71-29.98,64.38-46.63,65.71-4.69.37-8.98-2.18-12.07-6.22-.8-1.02-1.45-2.16-2.05-3.29l20.54-3.03c9.97-1.45,14.33-6.85,16.31-14.09,1.88-6.83.86-13.5-2.75-18.35-2.7-3.61-6.49-5.71-10.7-5.95-1.02-.03-3.26.11-6.17.35l-380.97,45.52c5.79-9.17,21.67-36.51,35.75-79.67,10.23-31.45,17.49-65.1,21.66-99.86,5.13-43.53,5.34-89.05.65-135.36-1.39-13.91-3.7-27.01-9.14-58.64-1.24-7.24-2.63-15.41-4.24-24.8-9.6-56.42-9.32-97.8,1-130.22,9.39-29.62,26.92-52.02,56.92-72.68,14.2-9.77,34.33-15.78,59.9-17.92,63.59-5.38,262.64-23,317.68-27.83-17.16,9.57-33.81,30.83-46.28,59.82Zm34.17-45.77l10.77-1.44c-2.08,2.33-3.55,5.21-4.42,8.1-1.81,6.25-.88,12.49,2.51,17.12.91,1.25,1.98,2.29,3.14,3.2l-34.21,3.26c6.82-12.43,14.2-22.53,22.22-30.23h0Zm10.15,7.71c1.09-3.64,4.33-9.48,10.14-10.47,0,0,1.37-.31,2.38-.19,1.76.19,3.37.94,4.53,2.3,1.32,1.59,1.94,3.76,1.69,5.71-.37,2.04-1.36,4.07-1.97,5.12l-17.48,1.75c.08-1.4.33-2.8.72-4.21Zm32.13-.5c-2,11.44-9.26,18.29-19.7,18.72,0,0-1.76.03-2.57,0-3.17-.11-6.01-1.72-7.95-4.42-1.24-1.64-2.05-3.64-2.45-5.74l19.62-1.95.51-.78s2.46-3.6,3.01-7.39c.47-3.01-.47-6.3-2.52-8.72-1.89-2.23-4.51-3.58-7.34-3.75-.71,0-2.08.08-3.37.26l-14.48,2.02c6.49-5.33,13.12-8.85,19.73-10.4.52-.16,2.05-.48,3.45-.48,4.09,0,7.42,1.25,9.93,3.91,3.91,4.07,5.52,11.25,4.11,18.72Z"/>
      <path class="cls-2" d="m351.25,850.39s-11.74-508.88-11.77-510.21c-11.85-.88-21.09-12.34-21.03-21.3.13-12.35,10.17-21.47,22.84-21.47s22.99,10.69,22.99,23.04c0,.51,200.92,8.41,200.92,8.41v-130.17l-201.64,13.1c0,12.31-12.2,23.06-24.87,23.06s-23.17-10.66-23.15-22.55c.04-12.3,12.1-25.4,26.39-23.06L351.68,0h-138.17l9.76,189.23c14.28-2.34,26.35,10.76,26.39,23.06.02,11.89-10.5,22.55-23.15,22.55s-24.87-10.75-24.87-23.06L0,198.69v130.17s200.92-7.9,200.92-8.41c0-12.35,10.31-23.04,22.99-23.04s22.71,9.12,22.84,21.47c.06,8.96-9.18,20.42-21.03,21.3-.03,1.33-11.77,510.21-11.77,510.21h137.31Z"/>
      <path class="cls-1" d="m221.76,843.59s11.53-495.32,11.54-496.65l.06-1.25,1.22-.47c11.14-4.25,18.28-14.46,18.28-26.09,0-15.51-12.92-28.04-28.76-28.04-12.55,0-23.83,8.13-27.53,19.77-.16,1.54-1.72,1.62-3.89,1.73-1.32.11-182.01,6.72-182.01,6.72v-109.5l186.67,9.86.43,1.29c3.94,11.97,15.79,20.33,28.72,20.33,16.58,0,30.13-13.13,30.13-29.36,0-13.44-9.37-25.12-22.78-28.44l-1.39-.38-8.77-174.51h117.79l-8.77,174.51-1.39.38c-13.41,3.32-22.78,15-22.78,28.44,0,16.23,13.55,29.36,30.13,29.36,12.94,0,24.78-8.36,28.72-20.33l.43-1.29,186.67-9.86v109.5s-180.69-6.61-182.01-6.72c-2.17-.11-3.73-.19-3.89-1.73-3.7-11.64-14.98-19.77-27.53-19.77-15.84,0-28.76,12.54-28.76,28.04,0,11.63,7.13,21.83,18.28,26.09l1.22.47.06,1.25c.01,1.32,11.54,496.65,11.54,496.65h-121.67Zm117.64-3.91c-.76-33.11-10.83-465.38-11.43-491.36-11.96-5.09-19.63-16.43-19.63-29.18,0-17.61,14.68-31.95,32.74-31.95,13.9,0,26.48,8.84,30.99,21.56,12.46.77,119.45,4.56,178.46,6.58v-101.47l-179.81,9.54c-4.89,12.84-17.84,21.78-32.04,21.78-18.74,0-34.08-14.91-34.08-33.24,0-14.72,9.92-27.62,24.31-31.8l8.39-167.67h-109.43l8.38,167.67c14.4,4.18,24.32,17.08,24.32,31.8,0,18.33-15.33,33.24-34.08,33.24-14.2,0-27.15-8.93-32.04-21.78l-179.81-9.54v101.47c59.01-2.03,166.01-5.81,178.46-6.58,4.51-12.72,17.09-21.56,30.99-21.56,18.06,0,32.74,14.34,32.74,31.95,0,12.75-7.67,24.09-19.63,29.18-.61,25.98-10.67,458.25-11.43,491.36h113.62Z"/>
    </g>
  </g>
</svg>