<?xml version="1.0" encoding="UTF-8"?>
<svg id="Layer_2" data-name="Layer 2" xmlns="http://www.w3.org/2000/svg" viewBox="0 0 566.93 178.88">
  <defs>
    <style>
      .cls-1 {
        fill: #8588c2;
      }

      .cls-2 {
        fill: #8cc63f;
      }

      .cls-3 {
        fill: #3b3f7e;
      }

      .cls-4 {
        fill: #00b9ad;
      }

      .cls-5 {
        fill: #f47920;
      }

      .cls-6 {
        fill: #00755c;
      }

      .cls-7 {
        fill: #fcaf17;
      }

      .cls-8 {
        fill: #853035;
      }

      .cls-9 {
        fill: #6e7881;
      }
    </style>
  </defs>
  <g id="Layer_1-2" data-name="Layer 1">
    <g>
      <g>
        <path class="cls-9" d="m378.11,35.79l3.36-18.14c.66-3.41,1.05-6.32,1.38-8.74h6.82l-.5,4.4h.11c2.48-3.46,5.72-5,9.18-5,4.29,0,6.16,2.74,6.38,5.11,2.42-3.46,5.77-5.11,9.29-5.11,4.12,0,6.54,2.69,6.54,7.25,0,1.1-.22,3.25-.44,4.62l-2.91,15.61h-7.69l2.69-14.68c.22-1.04.39-2.2.39-3.24,0-1.87-.82-3.19-2.64-3.19-2.64,0-5.28,3.52-6.32,8.96l-2.25,12.15h-7.64l2.8-14.79c.17-1.04.33-2.09.33-3.02,0-1.87-.61-3.3-2.53-3.3-2.69,0-5.5,3.74-6.43,9.02l-2.25,12.09h-7.64Z"/>
        <path class="cls-9" d="m442.53,22.04c-.88,4.51-3.46,7.43-6.05,7.43-2.42,0-3.63-1.98-3.63-4.73,0-5.06,3.41-10.39,8.19-10.39,1.1,0,2.25.22,2.86.5l-1.37,7.2Zm-18.97,23.53c1.87,1.05,5.17,1.71,8.8,1.71s7.47-.72,10.39-3.03c3.19-2.58,4.73-6.98,5.66-11.93l4.07-22.15c-2.86-1.15-6.16-1.87-9.95-1.87-11.71,0-18.09,8.79-18.03,17.64.05,5.28,3.3,9.62,8.63,9.62,3.19,0,5.61-1.27,7.7-4.01h.11l-.44,2.31c-1.15,5.39-4.06,7.14-8.03,7.14-2.3,0-5.94-.63-7.73-1.91l-1.17,6.47Z"/>
        <path class="cls-9" d="m472.67,20.73c-1.21,6.6-4.24,9.29-6.6,9.29-2.2,0-3.24-1.81-3.24-4.45,0-5,3.74-11.27,8.85-11.27.83,0,1.48.11,2.09.22l-1.1,6.21Zm6.21,15.06c-.11-3.35.44-8.63,1.1-12.09l2.69-14.07c-2.2-.71-5.61-1.32-8.85-1.32-13.2,0-19.24,9.67-19.24,18.74,0,5.61,3.3,9.35,8.14,9.35,3.13,0,6.59-1.49,9.12-5.94h.11c-.11,1.93-.27,3.79-.33,5.33h7.25Z"/>
        <path class="cls-9" d="m484.08,35.79l3.35-18.14c.66-3.41,1.04-6.32,1.38-8.74h6.82l-.5,4.4h.11c2.47-3.46,5.72-5,9.18-5,4.29,0,6.16,2.74,6.38,5.11,2.42-3.46,5.77-5.11,9.29-5.11,4.12,0,6.54,2.69,6.54,7.25,0,1.1-.22,3.25-.44,4.62l-2.91,15.61h-7.69l2.69-14.68c.22-1.04.38-2.2.38-3.24,0-1.87-.82-3.19-2.64-3.19-2.64,0-5.28,3.52-6.32,8.96l-2.25,12.15h-7.64l2.8-14.79c.17-1.04.33-2.09.33-3.02,0-1.87-.61-3.3-2.53-3.3-2.7,0-5.5,3.74-6.43,9.02l-2.25,12.09h-7.64Z"/>
        <path class="cls-9" d="m548.18,16.38c0,2.48-3.08,3.3-9.23,3.24.55-2.47,2.63-5.55,6.32-5.55,1.81,0,2.91.93,2.91,2.25v.05Zm5.26,11.24c-3.87,2.04-6.36,2.61-9.27,2.61-2.31,0-4.12-.71-5.17-2.09-.55-.77-.82-1.98-.82-2.75,10.77.27,17.43-2.2,17.43-9.02,0-5-3.91-8.08-9.35-8.08-9.73,0-15.66,8.52-15.66,16.71,0,7.04,3.96,11.38,11.65,11.38,2.97,0,6.87-.55,10-2.15l1.19-6.62Z"/>
      </g>
      <g>
        <g>
          <path class="cls-5" d="m104.94,41.25c-1.83-6.38-7.03-9.59-15.58-9.59-9.21,0-18.6,4.17-27.54,10.43-3.13-10.04-22.75-14.14-43.89-5.02-11.11,4.79-14.15,5.57-.79-9.92C23.77,19.43,45.48,0,83.92,0s92.43,36.72,67.2,109.35h0s0,.01-.01.04c-.31.88-.62,1.75-.95,2.64-.42,1.07-.95,2.34-1.66,3.81-1.43-1.15-7.79-9.37-10.54-17.88-4.21-13.02-.09-29.58,3.46-44.61,2.94-12.45-2.72-21.69-14.66-21.69-8.56,0-15.87,3.62-21.83,9.58Z"/>
          <path class="cls-5" d="m92.25,108.47c-3.01,19.68-13.23,23.28-18.18,23.28-7.37,0-13.95-6.65-5.73-22.21,10.67-20.21,14.98-33.1,18.79-45.74,3.35-11.14-3.82-12.89-6.85-12.89-4.62,0-10.27,1.97-16.18,6.96,0,0,.51,31.06-7.69,49.74-4.55,10.37-10.44,18.04-19.87,20.65-6.48,1.79-15.77.07-19.7-4.31C-.19,104.96,47.67,63.69,45.76,55.79c-.75-3.51-6.06-5.32-8.43-5.57-12.81-1.33-47.1,8.83-34.62,59.82,11.03,45.08,63.73,52.97,92.84,45.36,21.04-5.49,32.72-15.33,42.93-24.23-9.8-8.21-22.51-25.72-17.9-57.42,3.41-16.5,2.57-24.15-5.27-22.12-8.26,2.14-17,17.2-23.06,56.84Z"/>
        </g>
        <path class="cls-4" d="m563.2,113.74c-2.58,4.62-6.58,15.48-17.68,23.39-14.51,10.33-31.52,10.43-41.83,7.16-7.07-2.24-13.51-7.47-17.67-14.36-4.68-7.74-5.85-16.6-3.31-24.95,3.36-11,11.66-18.9,22.78-21.68,10.55-2.63,21.37,0,28.24,6.87,4.66,4.66,6.62,11.35,5.26,17.9-1.43,6.86-6.36,12.56-13.18,15.24-7.01,2.76-15.9.97-21.06-2.22-3.01-1.87-3.94-5.82-2.08-8.84,1.87-3.01,5.82-3.94,8.84-2.08,2.05,1.27,6.69,2.33,9.6,1.19,2.82-1.11,4.76-3.27,5.31-5.91.48-2.33-.16-4.6-1.77-6.21-3.64-3.64-9.95-5.01-16.06-3.49-6.64,1.66-11.6,6.38-13.61,12.96-3.33,10.93,5.08,20.95,12.57,23.33,8.04,2.55,20.55,1.9,30.37-5.29,11.3-8.27,22.15-23.12,18.04-40.01-1.31-5.4-4.91-11.22-10.2-16.08-10.5-9.67-21.46-11.04-31.66-10.57-21.76,1-39.22,11.4-47.53,28.99,1.46,1.04,2.77,2.24,3.88,3.57,5.69,6.82,7.48,18.44,8.28,27.04,1.15,12.48-.01,23.24-2.39,31.49,9.7,10.6,23.21,16.87,37.77,14.51,28.79-4.65,52.81-18.67,52.81-52.8,0-1.77-1.48-3.18-3.72.83Z"/>
        <g>
          <path class="cls-7" d="m462.23,122.73s0,.02,0,.03c.76,8.45.08,18.59-2.85,29.49-3.42,9.05,12.15,14.94,15.73,2.72.44-1.19.85-2.46,1.23-3.78-4.35-4.75-7.94-10.37-10.51-16.47-1.62-3.84-2.85-7.87-3.61-12Z"/>
          <path class="cls-7" d="m466.59,89.1c-4.54-3.23-10.61-4.89-17.15-3.72-4.48.8-9.35,2.55-12.6,5.84-.66.67-1.25,1.39-1.81,2.14-3.83-4.83-9-7.27-15.48-7.27-6.97,0-12.5,3.16-16.88,7.9-11.34-9.84-31.58-7.95-33.16,11.5-1.2,14.86,3.33,37.54-18.36,40.79,0,0-2.83,7.91-6.19,12.63,0,0,36.68,2.42,36.68-35.76,0-12.08.16-21.31,7.38-21.31,2.01,0,6.15,1.5,8.06,4.16-6.12,6.98-10.07,22.81-10.37,31.74,0-.08.01-.16.03-.24-1.55,11.31,1.61,20.95,8.45,25.78,4.67,3.3,11.01,2.68,15.39-.43,10.22-7.25,10.87-23.33,4.24-45.87-1.27-4.32-3.24-7.45-4.73-10.84,2.57-3.78,5.96-4.09,9.45-4.09,2.29,0,6.86,2.45,8.59,10.18,3.12,13.89-1.53,22.39-.85,38.22.29,6.74,4.55,11.08,8.31,11.08s9.67-2.74,8.71-11.25c-2.04-18.16-1.78-27.86-1.78-37.16,0-12.59,3.8-13.98,7.52-13.98,4.81,0,9.46,7.06,11.46,18.19,0,.02,0,.03,0,.05-.13-1.48-.19-2.97-.19-4.47,0-7.97,1.65-15.63,4.68-22.54.19-.43.39-.85.59-1.27Zm-64.37,60.04c-1.91-1.7-2.41-5.4-1.85-12,.7-8.34,2.32-14.31,3.23-17.26,2.95,14.06,3.6,21.88,3.6,24.18,0,4.93-3.07,6.77-4.98,5.07Z"/>
        </g>
        <path class="cls-6" d="m478.75,119.71c-.8-8.6-2.58-20.22-8.28-27.04-1.11-1.32-2.41-2.53-3.88-3.57-.2.42-.4.84-.59,1.27-3.03,6.91-4.68,14.57-4.68,22.54,0,1.49.06,2.98.19,4.47.16,1.78.37,3.59.72,5.36.76,4.12,1.98,8.16,3.61,12,2.57,6.1,6.16,11.72,10.51,16.47,2.38-8.25,3.54-19,2.39-31.49Z"/>
        <g>
          <path class="cls-8" d="m51.3,73.8c-4.99,4.98-13.68,16.87-18.34,24.3-5.37,8.57-6.58,13.18-4.4,14.67,6.48,4.43,22.74-19.97,22.74-38.97Z"/>
          <path class="cls-8" d="m151.86,107.18c-.2.62-1.72,5.47-3.35,8.65-1.51-1.2-7.79-9.37-10.54-17.88-4.21-13.02-.09-29.58,3.46-44.61,1.29-5.44,1.58-12.89-3.95-18.06,7.49,3.3,12.25,11.93,10.25,23.13-2.25,12.67-8.86,32.74,4.13,48.76Z"/>
          <path class="cls-8" d="m78.4,138.83c8.39.42,18.08-5.61,21.08-25.29,6.06-39.64,11.44-53.35,19.7-55.49.98-.26,2.29-.18,3.25.06-.21-3.56-1.1-8.02-7.13-6.48-8.5,2.17-17,16.72-23.06,56.84-2.97,19.68-13.23,23.28-18.18,23.28-1.65,0-5.08-.38-7.5-3.26.78,4.82,6.61,10.07,11.84,10.33Z"/>
          <path class="cls-8" d="m45.76,55.79c-.76-3.5-6.07-5.21-8.43-5.57C25.6,48.42-1.15,56.8.04,91.47c4.78-23.72,26.45-34.48,38.09-32.94,2.56.34,5.04,1.78,5.04,3.62,3.05-4.52,2.69-5.86,2.59-6.37Z"/>
          <path class="cls-8" d="m40.87,134.5c11.23-2.29,17.72-10.29,22.27-20.66,8.19-18.68,7.37-51.63,7.37-51.63,3.53-3.53,7.89-4.73,12.51-4.73,2.27,0,4.44.71,4.97,1.24,0-6.95-5.53-7.81-7.72-7.81-4.62,0-10.27,1.97-16.18,6.96,0,0,.51,31.06-7.69,49.74-4.55,10.37-10.44,18.04-19.87,20.65-5.5,1.52-16.55.79-20.87-5.79.56,1.15,2.06,3.9,4.81,6.35,6.78,6.01,14.88,6.79,20.39,5.67Z"/>
        </g>
        <g>
          <path class="cls-1" d="m307.18,124.03c-5.52-1.26-9.26.13-11.42,1.52-2.45,1.57-4.17,3.96-4.71,6.55-1.35,6.42,1.45,10.45,3.24,12.28,2.68,2.75,6.44,4.07,9.8,3.45,4.04-.75,7.02-2.61,9.08-5.7,1.89-2.82,3.06-6.74,3.49-11.36-2.35-3.13-5.32-5.79-9.49-6.75Z"/>
          <path class="cls-1" d="m351.15,146.28c1.9-5.89,2.94-12.61,2.94-20.21,0-29.16-17.35-52.8-52.8-52.8-12.02,0-23.7,4.28-33.01,11.7,1.35,7.34,2.06,14.77.98,21.78-2.39,15.36-9.27,26.71-19.07,34.92,5.6,24.11,24.68,37.2,51.1,37.2,24.75,0,34.16-6.37,43.66-19.95-10.36-1.22-16-7.22-19.41-12.6-.51,1.01-1.08,2.01-1.71,2.96-3.97,5.94-10,9.8-17.41,11.18-7.63,1.42-15.61-1.24-21.33-7.1-6.09-6.23-8.5-14.94-6.62-23.89,1.25-5.94,5.02-11.31,10.35-14.72,5.99-3.83,13.51-4.98,21.2-3.23,1.91.44,3.65,1.06,5.27,1.81-1.77-7.66-5.71-12.95-11.47-15.28-6.29-2.54-12.84-2.14-19.56,2.4-2.94,1.98-6.93,1.21-8.91-1.73-1.98-2.94-1.21-6.93,1.73-8.91,10.26-6.94,21.3-7.81,31.56-3.66,9.92,4.02,16.8,12.95,19.38,25.16.7,3.33,1.64,8.97,1.64,15.31,0,.16,0,.32-.01.49,4.65,12.11,10.23,19.18,21.49,19.18Z"/>
        </g>
        <path class="cls-3" d="m269.26,106.76c1.08-7.01.37-14.44-.98-21.78-11.8,9.41-19.79,23.88-19.79,41.1,0,5.63.59,10.83,1.7,15.61,9.8-8.21,16.68-19.56,19.07-34.92Z"/>
        <path class="cls-2" d="m251,95.68c.62,1.94.75,5.58.5,7.64-1.73,14.01-11.95,26.21-28.9,32.43-22.63,8.3-53.73-2.83-72.56-23.42-2.93,7.23-6.58,13.91-11.57,18.83,26.91,23.3,62.35,32.67,90.98,22.16,7.76-2.85,14.79-6.67,20.74-11.65-1.11-4.78-1.7-9.98-1.7-15.61,0-17.22,7.98-31.68,19.79-41.1-1.06-5.78-2.52-11.5-3.82-16.93-1.65-6.93-2.98-11.44-2.71-16.98.36-7.47,2.2-12.26,7.41-15.67,5.07-3.32,6.45-9.34,3.37-13.55-3.05-4.17-9.98-4.32-14.31-1.48-9.52,6.24-14.22,14.25-15.05,27.76-.55,9.12.75,16.94,3.89,26.7-5.55,14.86-22.99,21.25-35.81,19.2-10.28-1.65-22.44-8.48-24.09-25.18-2-20.16,12.73-31.86,26.65-31.4,8.46.28,12.61,3.82,12.61,8.77,0,5.85-5.08,8.82-12.87,9.2-7.13.35-10.37,5.81-9.56,11.14.98,6.4,6.53,8.91,11.46,8.91,13.6,0,29.93-12.61,28.55-31.45-1.14-15.6-13.19-22.46-26.57-24.16-26.4-3.35-52.15,16.87-48.81,50.61,1.14,11.43,6.49,22.15,13.97,29.58,6.87,6.82,15.93,10.62,25.85,11.92,16.92,2.22,33.19-4.42,42.57-16.29Z"/>
      </g>
    </g>
  </g>
</svg>