<?xml version="1.0" encoding="utf-8"?>
<!-- Generator: Adobe Illustrator 27.7.0, SVG Export Plug-In . SVG Version: 6.00 Build 0)  -->
<svg version="1.1" xmlns="http://www.w3.org/2000/svg" xmlns:xlink="http://www.w3.org/1999/xlink" x="0px" y="0px"
	 viewBox="0 0 56 51" style="enable-background:new 0 0 56 51;" xml:space="preserve">
<style type="text/css">
	.st0{fill:#F1F1F2;}
	.st1{fill:#06BE34;}
	.st2{fill:#FFFFFF;}
	.st3{fill:none;}
	.st4{fill:#F5F7F8;}
</style>
<g id="BG">
	<rect x="-174" y="317.4" class="st0" width="841.9" height="594.4"/>
</g>
<g id="NAVER_Logo">
	<path class="st1" d="M-2750.6-2623h-93.3c-5,0-9.1-4.1-9.1-9.1v-93.3c0-5,4.1-9.1,9.1-9.1h93.3c5,0,9.1,4.1,9.1,9.1v93.3
		C-2741.5-2627.1-2745.6-2623-2750.6-2623"/>
	<polygon class="st2" points="-2769.6,-2704.2 -2769.6,-2653.3 -2788.1,-2653.3 -2806.3,-2678.9 -2806.3,-2653.3 -2824.9,-2653.3 
		-2824.9,-2704.2 -2806.3,-2704.2 -2788.1,-2677.6 -2788.1,-2704.2 	"/>
	<path class="st1" d="M-2655.2-2621.7c-31.5,0-57.1-25.6-57.1-57.1c0-31.5,25.6-57.1,57.1-57.1c31.5,0,57.1,25.6,57.1,57.1
		C-2598.1-2647.3-2623.7-2621.7-2655.2-2621.7 M-2655.2-2733.1c-30,0-54.3,24.4-54.3,54.3c0,30,24.4,54.3,54.3,54.3
		c30,0,54.3-24.4,54.3-54.3C-2600.9-2708.7-2625.3-2733.1-2655.2-2733.1"/>
	<polygon class="st1" points="-2627.6,-2704.2 -2627.6,-2653.3 -2646.1,-2653.3 -2664.3,-2678.9 -2664.3,-2653.3 -2682.9,-2653.3 
		-2682.9,-2704.2 -2664.3,-2704.2 -2646.1,-2677.6 -2646.1,-2704.2 	"/>
	<path class="st1" d="M-2655.2-2481L-2655.2-2481c-30.8,0-55.7-24.9-55.7-55.7c0-30.8,24.9-55.7,55.7-55.7
		c30.8,0,55.7,24.9,55.7,55.7C-2599.5-2506-2624.5-2481-2655.2-2481"/>
	<polygon class="st2" points="-2627.6,-2562.2 -2627.6,-2511.3 -2646.1,-2511.3 -2664.3,-2536.9 -2664.3,-2511.3 -2682.9,-2511.3 
		-2682.9,-2562.2 -2664.3,-2562.2 -2646.1,-2535.6 -2646.1,-2562.2 	"/>
	<path class="st1" d="M-2752.1-2479.7h-90.3c-6.6,0-11.9-5.4-11.9-11.9v-90.3c0-6.6,5.4-11.9,11.9-11.9h90.3
		c6.6,0,11.9,5.4,11.9,11.9v90.3C-2740.1-2485-2745.5-2479.7-2752.1-2479.7 M-2842.4-2591.1c-5.1,0-9.2,4.1-9.2,9.2v90.3
		c0,5.1,4.1,9.2,9.2,9.2h90.3c5.1,0,9.2-4.1,9.2-9.2v-90.3c0-5.1-4.1-9.2-9.2-9.2H-2842.4z"/>
	<polygon class="st1" points="56,0 56,51 37.2,51 18.8,25.3 18.8,51 0,51 0,0 18.8,0 37.2,26.7 37.2,0 	"/>
	<rect x="-2986.2" y="-2757.8" class="st3" width="520" height="300"/>
	<rect x="-3011.1" y="-2747" class="st3" width="520" height="300"/>
	<rect x="-115.4" y="-37.7" class="st4" width="94.3" height="66.8"/>
</g>
</svg>
